# xmcd CD database file
#
# Track frame offsets:
#	150
#	20019
#	37418
#	56558
#	74027
#	91371
#	111779
#	128909
#	148328
#	170366
#	190241
#	209389
#	241830
#
# Disc length: 3570 seconds
#
# Revision: 0
# Processed by: cddbd v1.5.2PL0 Copyright (c) Steve Scherf et al.
# Submitted via: CDex 1.51
#
DISCID=ca0df00d
DTITLE=Ron Korb - Japanese Mysteries
DYEAR=1993
DGENRE=New Age
TTITLE0=The Great East Temple (Todaiji)
TTITLE1=The Tale Of Genji (Genji Monogatari)
TTITLE2=Legend Of The Heike (Heike Monogatari)
TTITLE3=Eastern Sea Route (Tokaido)
TTITLE4=Winter Night (Fuyu No Yoru)
TTITLE5=The Floating Bridge Of Heaven
TTITLE6=River Child (Kappa)
TTITLE7=Visiting Spirits (Obon)
TTITLE8=Homecoming (Furusato)
TTITLE9=Autumn Rain (Murashigure)
TTITLE10=Festival Dreams (Yume Matsuri)
TTITLE11=The Zen Garden (Ryoanji)
TTITLE12=Heavenly Music (Etenraku)
EXTD=YEAR: 1993
EXTT0=
EXTT1=
EXTT2=
EXTT3=
EXTT4=
EXTT5=
EXTT6=
EXTT7=
EXTT8=
EXTT9=
EXTT10=
EXTT11=
EXTT12=
PLAYORDER=
